<svg id="alert" xmlns="http://www.w3.org/2000/svg" width="34.722" height="34.722" viewBox="0 0 34.722 34.722">
  <circle id="Ellipse_132" data-name="Ellipse 132" cx="4.34" cy="4.34" r="4.34" transform="translate(22.424 16.637)" fill="#fff"/>
  <path id="Path_6606" data-name="Path 6606" d="M24.936,19H16.979A3.982,3.982,0,0,0,13,22.979v2.17a1.085,1.085,0,0,0,1.085,1.085H27.829a1.085,1.085,0,0,0,1.085-1.085v-2.17A3.982,3.982,0,0,0,24.936,19Z" transform="translate(5.808 8.488)" fill="#fff"/>
  <ellipse id="Ellipse_133" data-name="Ellipse 133" cx="1.825" cy="2.737" rx="1.825" ry="2.737" transform="translate(3.784 21.798)" fill="#fff"/>
  <path id="Path_6607" data-name="Path 6607" d="M7.6,20H3.979A3.982,3.982,0,0,0,0,23.979V24.7a1.085,1.085,0,0,0,1.085,1.085h9.4A1.085,1.085,0,0,0,11.574,24.7v-.723A3.982,3.982,0,0,0,7.6,20Z" transform="translate(0 8.935)" fill="#fff"/>
  <path id="Path_6608" data-name="Path 6608" d="M17.723,0H3.979A3.982,3.982,0,0,0,0,3.979V14.829a3.982,3.982,0,0,0,3.979,3.979H11.15l4.389,4.052a1.085,1.085,0,0,0,1.821-.8V18.808h.362A3.982,3.982,0,0,0,21.7,14.829V3.979A3.982,3.982,0,0,0,17.723,0ZM10.851,15.191a1.085,1.085,0,1,1,1.085-1.085A1.085,1.085,0,0,1,10.851,15.191Zm1.085-4.7a1.085,1.085,0,1,1-2.17,0V5.425a1.085,1.085,0,0,1,2.17,0Z" fill="#fff"/>
</svg>
