<svg xmlns="http://www.w3.org/2000/svg" width="28.233" height="31.37" viewBox="0 0 28.233 31.37">
  <g id="building" transform="translate(-21.333)">
    <g id="Group_4104" data-name="Group 4104" transform="translate(21.333)">
      <path id="Path_6603" data-name="Path 6603" d="M46.429,28.233V0H24.47V28.233H21.333V31.37H49.566V28.233ZM33.881,3.137h3.137V6.274H33.881Zm0,6.274h3.137v3.137H33.881Zm0,6.274h3.137v3.137H33.881Zm-3.137,3.137H27.607V15.685h3.137Zm0-6.274H27.607V9.411h3.137Zm0-6.274H27.607V3.137h3.137Zm7.843,21.959H32.313V25.1a3.137,3.137,0,1,1,6.274,0Zm4.706-9.411H40.155V15.685h3.137Zm0-6.274H40.155V9.411h3.137Zm0-6.274H40.155V3.137h3.137Z" transform="translate(-21.333)" fill="#fff"/>
    </g>
  </g>
</svg>
