<svg xmlns="http://www.w3.org/2000/svg" width="34" height="34" viewBox="0 0 34 34">
  <g id="calendar_1_" data-name="calendar (1)" transform="translate(0 0)">
    <path id="Path_6609" data-name="Path 6609" d="M24.438,2.834H22.667V1.417a1.417,1.417,0,0,0-2.833,0V2.834H8.5V1.417a1.417,1.417,0,0,0-2.833,0V2.834H3.9A3.9,3.9,0,0,0,0,6.729V22.667a4.255,4.255,0,0,0,4.25,4.25h7.083a1.417,1.417,0,1,0,0-2.833H4.25a1.418,1.418,0,0,1-1.417-1.417V11.334H25.5a1.417,1.417,0,0,0,2.833,0v-4.6a3.9,3.9,0,0,0-3.9-3.9Zm0,0" fill="#fff"/>
    <path id="Path_6610" data-name="Path 6610" d="M243.876,234.668a9.208,9.208,0,1,0,9.208,9.208A9.219,9.219,0,0,0,243.876,234.668Zm4.259,7.657-4.6,5.313a1.424,1.424,0,0,1-1.02.489h-.051a1.415,1.415,0,0,1-1-.415l-2.479-2.479a1.416,1.416,0,0,1,2-2l1.4,1.4,3.607-4.162a1.417,1.417,0,0,1,2.142,1.854Zm0,0" transform="translate(-219.085 -219.084)" fill="#fff"/>
  </g>
</svg>
