<svg xmlns="http://www.w3.org/2000/svg" width="231.801" height="37.813">
    <defs>
      <clipPath id="a">
        <path
          fill="none"
          d="M0 0h231.801v37.813H0z"
          data-name="Rectangle 407"
        />
      </clipPath>
    </defs>
    <g data-name="Group 3909">
      <g fill="#072c56" clip-path="url(#a)" data-name="Group 3908">
        <path
          d="M44.273 14.522 26.217.762a7.126 7.126 0 0 0-6.413 0L.563 15.615s-1.263 1.772 0 2.615 3.29-.591 3.29-.591L5.794 33a5.849 5.849 0 0 0 5.739 4.811H36.2l-6.22-6.428.033-.029a11.8 11.8 0 1 1 2.909-2.64l.029-.027 6.883 7.15a7.735 7.735 0 0 0 1.567-4.1l1.352-13.671s2.2 1.519 3.207.085.085-2.279-1.688-3.628"
          data-name="Path 6371"
        />
        <path
          d="M23.57 13.478a8.18 8.18 0 1 0 8.181 8.18 8.18 8.18 0 0 0-8.181-8.18Z"
          data-name="Path 6372"
        />
        <path
          d="M69.474 1.652c-2.5 0-4.135 1.568-4.135 3.6s1.64 3.6 4.135 3.6 4.136-1.568 4.136-3.707c0-2.033-1.64-3.494-4.136-3.494"
          data-name="Path 6373"
        />
        <path
          d="M66.087 10.992h6.774v19.324h-6.774z"
          data-name="Rectangle 406"
        />
        <path
          d="M89.829 10.672a8.3 8.3 0 0 0-6.131 2.424v-2.107h-6.454v19.326h6.774v-9.34c0-3.21 1.676-4.564 3.851-4.564 1.96 0 3.172 1.176 3.172 3.958v9.946h6.775V19.263c0-5.989-3.457-8.591-7.987-8.591"
          data-name="Path 6374"
        />
        <path
          d="M107.257 16.839c0-.713.82-1.354 3.1-1.354a11.318 11.318 0 0 1 5.563 1.427l2.032-4.6a16.954 16.954 0 0 0-7.629-1.64c-6.062 0-9.412 2.78-9.412 6.417 0 7.737 11.409 4.778 11.409 7.381 0 .82-.749 1.319-3.031 1.319a13.57 13.57 0 0 1-6.738-1.782l-2.032 4.635a17.737 17.737 0 0 0 8.556 2c6.276 0 9.556-2.781 9.556-6.347 0-7.665-11.374-4.776-11.374-7.451"
          data-name="Path 6375"
        />
        <path
          d="M133.706 10.672c-2.531 0-4.421.713-5.7 2.246v-1.929h-6.457v26.24h6.774v-8.624a7.206 7.206 0 0 0 5.383 2.032c5.241 0 9.484-3.851 9.484-9.983s-4.243-9.982-9.484-9.982m-1.426 14.581c-2.281 0-4.065-1.675-4.065-4.6s1.783-4.6 4.065-4.6 4.065 1.675 4.065 4.6-1.783 4.6-4.065 4.6"
          data-name="Path 6376"
        />
        <path
          d="M154.166 10.671a16.229 16.229 0 0 0-8.521 2.247l2.281 4.6a9 9 0 0 1 5.241-1.675c2.674 0 3.993 1.1 4.1 3.065h-3.851c-5.989 0-8.593 2.21-8.593 5.776 0 3.351 2.568 5.954 7.2 5.954 2.817 0 4.743-.964 5.705-2.816v2.5h6.31V19.583c0-6.132-3.6-8.912-9.875-8.912m3.1 13.441a3.339 3.339 0 0 1-3.352 2.246c-1.6 0-2.531-.82-2.531-1.962 0-1.176.784-1.959 2.958-1.959h2.924Z"
          data-name="Path 6377"
        />
        <path
          d="M178.439 16.054a4.191 4.191 0 0 1 3.851 2.6l5.24-2.675c-1.319-3.351-4.669-5.311-9.056-5.311-6.488 0-11.087 4.135-11.087 9.947 0 5.882 4.6 10.017 11.087 10.017 4.387 0 7.737-1.959 9.056-5.311l-5.24-2.675a4.189 4.189 0 0 1-3.851 2.6c-2.354 0-4.207-1.64-4.207-4.634 0-2.924 1.853-4.564 4.207-4.564"
          data-name="Path 6378"
        />
        <path
          d="M199.718 16.054a4.189 4.189 0 0 1 3.851 2.6l5.24-2.675c-1.319-3.351-4.669-5.311-9.055-5.311-6.488 0-11.088 4.135-11.088 9.947 0 5.882 4.6 10.017 11.088 10.017 4.385 0 7.736-1.959 9.055-5.311l-5.24-2.675a4.188 4.188 0 0 1-3.851 2.6c-2.353 0-4.207-1.64-4.207-4.634 0-2.924 1.855-4.564 4.207-4.564"
          data-name="Path 6379"
        />
        <path
          d="M220.89 10.672c-6.31 0-10.909 4.135-10.909 9.946 0 5.847 4.6 10.018 10.909 10.018 6.381 0 10.911-4.172 10.911-10.018 0-5.811-4.529-9.946-10.911-9.946m0 14.581c-2.281 0-4.065-1.675-4.065-4.635 0-2.923 1.783-4.562 4.065-4.562 2.318 0 4.066 1.64 4.066 4.562 0 2.96-1.748 4.635-4.066 4.635"
          data-name="Path 6380"
        />
      </g>
    </g>
  </svg>