<svg xmlns="http://www.w3.org/2000/svg" xmlns:xlink="http://www.w3.org/1999/xlink" version="1.1"
  width="1080" height="1080" viewBox="0 0 1080 1080" xml:space="preserve">
  <g transform="matrix(1 0 0 1 540 540)" id="e197ca74-e793-4f18-bc22-cb7eb060c796"  >
  <rect style="stroke: none; stroke-width: 1; stroke-dasharray: none; stroke-linecap: butt; stroke-dashoffset: 0; stroke-linejoin: miter; stroke-miterlimit: 4; fill: rgb(255,255,255); fill-rule: nonzero; opacity: 1; visibility: hidden;" vector-effect="non-scaling-stroke"  x="-540" y="-540" rx="0" ry="0" width="1080" height="1080" />
  </g>
  <g transform="matrix(1 0 0 1 540 540)" id="e546805b-9e61-4495-9e68-503ae6a10fb8"  >
  </g>
  <g transform="matrix(45 0 0 45 540 540)"  >
  <path style="stroke: none; stroke-width: 1; stroke-dasharray: none; stroke-linecap: butt; stroke-dashoffset: 0; stroke-linejoin: miter; stroke-miterlimit: 4; fill: none; fill-rule: nonzero; opacity: 1;" vector-effect="non-scaling-stroke"  transform=" translate(-12, -12)" d="M 0 0 L 24 0 L 24 24 L 0 24 z" stroke-linecap="round" />
  </g>
  <g transform="matrix(45 0 0 45 540 540)"  >
  <path style="stroke: none; stroke-width: 1; stroke-dasharray: none; stroke-linecap: butt; stroke-dashoffset: 0; stroke-linejoin: miter; stroke-miterlimit: 4; fill: rgb(255,255,255); fill-rule: nonzero; opacity: 1;" vector-effect="non-scaling-stroke"  transform=" translate(-12, -12)" d="M 13 3 L 11 3 L 11 13 L 13 13 L 13 3 z M 17.83 5.17 L 16.409999999999997 6.59 C 17.99 7.86 19 9.81 19 12 C 19 15.870000000000001 15.870000000000001 19 12 19 C 8.129999999999999 19 5 15.870000000000001 5 12 C 5 9.81 6.01 7.86 7.58 6.58 L 6.17 5.17 C 4.23 6.82 3 9.26 3 12 C 3 16.97 7.03 21 12 21 C 16.97 21 21 16.97 21 12 C 21 9.26 19.77 6.82 17.83 5.17 z" stroke-linecap="round" />
  </g>
</svg>