<svg id="Group_3556" data-name="Group 3556" xmlns="http://www.w3.org/2000/svg" xmlns:xlink="http://www.w3.org/1999/xlink" width="161.252" height="180.285" viewBox="0 0 161.252 180.285">
  <defs>
    <clipPath id="clip-path">
      <rect id="Rectangle_553" data-name="Rectangle 553" width="161.252" height="180.285" fill="none"/>
    </clipPath>
    <clipPath id="clip-path-3">
      <rect id="Rectangle_546" data-name="Rectangle 546" width="106.313" height="106.457" fill="none"/>
    </clipPath>
    <clipPath id="clip-path-4">
      <rect id="Rectangle_547" data-name="Rectangle 547" width="44.255" height="44.315" fill="none"/>
    </clipPath>
  </defs>
  <g id="Group_3552" data-name="Group 3552" clip-path="url(#clip-path)">
    <g id="Group_3551" data-name="Group 3551">
      <g id="Group_3550" data-name="Group 3550" clip-path="url(#clip-path)">
        <path id="Path_5976" data-name="Path 5976" d="M259.27,32.75h-72.7a3.4,3.4,0,0,1-3.388-3.388V3.388A3.4,3.4,0,0,1,186.57,0h72.7a3.4,3.4,0,0,1,3.388,3.388V29.362a3.4,3.4,0,0,1-3.388,3.388" transform="translate(-144.18)" fill="#9ec8ff"/>
        <path id="Path_5977" data-name="Path 5977" d="M228.268,120.439v18.069l20.822-20.822s-20.4,2.753-20.822,2.753" transform="translate(-179.667 -92.629)" fill="#9ec8ff"/>
        <path id="Path_5978" data-name="Path 5978" d="M270.871,41.506h-65.51a2.881,2.881,0,0,1-2.872-2.872V18.121a2.881,2.881,0,0,1,2.872-2.872h65.51a2.881,2.881,0,0,1,2.872,2.872V38.633a2.881,2.881,0,0,1-2.872,2.872" transform="translate(-159.377 -12.002)" fill="#fff"/>
        <path id="Path_5979" data-name="Path 5979" d="M260.538,35.311H228.353a1.412,1.412,0,1,1,0-2.823h32.186a1.412,1.412,0,1,1,0,2.823" transform="translate(-178.623 -25.571)" fill="#9ec8ff"/>
        <path id="Path_5980" data-name="Path 5980" d="M287.423,65.236h-59.7a.787.787,0,0,1-.785-.785v-.016a.787.787,0,0,1,.785-.785h59.7a.787.787,0,0,1,.785.785v.016a.787.787,0,0,1-.785.785" transform="translate(-178.623 -50.098)" fill="#9ec8ff"/>
        <path id="Path_5981" data-name="Path 5981" d="M287.423,79.667h-59.7a.787.787,0,0,1-.785-.785v-.016a.787.787,0,0,1,.785-.785h59.7a.787.787,0,0,1,.785.785v.016a.787.787,0,0,1-.785.785" transform="translate(-178.623 -61.457)" fill="#9ec8ff"/>
        <path id="Path_5982" data-name="Path 5982" d="M443.065,121.787H441.11a.748.748,0,0,1-.748-.748v-1.61a.748.748,0,0,1,.748-.748h1.955a.748.748,0,0,1,.748.748v1.61a.748.748,0,0,1-.748.748" transform="translate(-346.604 -93.412)" fill="#9ec8ff"/>
        <path id="Path_5983" data-name="Path 5983" d="M472.532,121.787h-1.955a.748.748,0,0,1-.748-.748v-1.61a.748.748,0,0,1,.748-.748h1.955a.748.748,0,0,1,.748.748v1.61a.748.748,0,0,1-.748.748" transform="translate(-369.797 -93.412)" fill="#9ec8ff"/>
        <path id="Path_5984" data-name="Path 5984" d="M502,121.787h-1.955a.748.748,0,0,1-.748-.748v-1.61a.748.748,0,0,1,.748-.748H502a.748.748,0,0,1,.748.748v1.61a.748.748,0,0,1-.748.748" transform="translate(-392.991 -93.412)" fill="#9ec8ff"/>
        <g id="Group_3546" data-name="Group 3546" transform="translate(0 73.828)" opacity="0.5">
          <g id="Group_3545" data-name="Group 3545">
            <g id="Group_3544" data-name="Group 3544" clip-path="url(#clip-path-3)">
              <path id="Path_5985" data-name="Path 5985" d="M104.717,414.23a53.085,53.085,0,0,0,1.6-8.155l-8.418-3.789q.064-1.2.065-2.41a44.989,44.989,0,0,0-.487-6.6l8.026-4.567a52.893,52.893,0,0,0-2.363-7.965l-9.216.557a44.584,44.584,0,0,0-4.571-7.777l4.982-7.77a53.66,53.66,0,0,0-5.8-5.955l-7.9,4.774a44.648,44.648,0,0,0-7.652-4.775l.8-9.2a52.944,52.944,0,0,0-7.9-2.574l-4.777,7.9a44.9,44.9,0,0,0-7.766-.675q-.617,0-1.229.017l-3.565-8.514a53.183,53.183,0,0,0-8.2,1.379l-.558,9.214a44.381,44.381,0,0,0-8.275,3.6L24.4,355.065A53.522,53.522,0,0,0,17.8,360.11l3.787,8.417a44.829,44.829,0,0,0-5.658,7.021l-9.036-1.9a53.073,53.073,0,0,0-3.514,7.529l7.267,5.694a44.429,44.429,0,0,0-1.734,8.852l-8.88,2.512c-.017.546-.028,1.094-.028,1.644a53.9,53.9,0,0,0,.413,6.659L9.492,408.2a44.284,44.284,0,0,0,2.567,8.65L5.36,423.2a53.307,53.307,0,0,0,4.212,7.163l8.815-2.746a44.887,44.887,0,0,0,6.291,6.458L21.7,442.817a53.346,53.346,0,0,0,7.051,4.4l6.527-6.526a44.281,44.281,0,0,0,8.579,2.8l1.424,9.121a53.751,53.751,0,0,0,8.057.605l.233,0,2.747-8.812a44.5,44.5,0,0,0,8.894-1.5l5.5,7.417A53.036,53.036,0,0,0,78.331,447l-1.664-9.082a44.8,44.8,0,0,0,7.167-5.472l8.315,4.009a53.573,53.573,0,0,0,5.216-6.472l-5.691-7.265a44.4,44.4,0,0,0,3.816-8.176Zm-51.38,7.593a21.947,21.947,0,1,1,21.947-21.947,21.947,21.947,0,0,1-21.947,21.947" transform="translate(0 -346.756)" fill="#9ec8ff"/>
            </g>
          </g>
        </g>
        <path id="Path_5986" data-name="Path 5986" d="M90.247,684.951a.572.572,0,0,1-.46-.231,39.884,39.884,0,0,1-3.338-5.322.573.573,0,1,1,1.016-.53,38.737,38.737,0,0,0,3.242,5.168.573.573,0,0,1-.459.915" transform="translate(-67.992 -534.086)" fill="#fff"/>
        <path id="Path_5987" data-name="Path 5987" d="M156.995,748.52a.605.605,0,0,1-.075,0,39.65,39.65,0,0,1-18.942-7.843.573.573,0,1,1,.7-.909,38.506,38.506,0,0,0,18.393,7.616.573.573,0,0,1-.074,1.141" transform="translate(-108.424 -582.166)" fill="#fff"/>
        <g id="Group_3549" data-name="Group 3549" transform="translate(116.997 22.492)" opacity="0.5">
          <g id="Group_3548" data-name="Group 3548">
            <g id="Group_3547" data-name="Group 3547" clip-path="url(#clip-path-4)">
              <path id="Path_5988" data-name="Path 5988" d="M593.1,133.729a22.106,22.106,0,0,0,.664-3.395l-3.5-1.577q.026-.5.027-1a18.7,18.7,0,0,0-.2-2.747l3.341-1.9a22.015,22.015,0,0,0-.984-3.316l-3.836.232a18.547,18.547,0,0,0-1.9-3.237l2.074-3.234a22.313,22.313,0,0,0-2.415-2.479l-3.288,1.987a18.581,18.581,0,0,0-3.185-1.987l.333-3.829a22.026,22.026,0,0,0-3.288-1.072l-1.989,3.289a18.68,18.68,0,0,0-3.233-.281c-.171,0-.342,0-.512.007l-1.484-3.544a22.143,22.143,0,0,0-3.412.574l-.232,3.835a18.448,18.448,0,0,0-3.445,1.5l-2.961-2.449a22.3,22.3,0,0,0-2.75,2.1l1.577,3.5a18.668,18.668,0,0,0-2.355,2.922l-3.761-.792a22.068,22.068,0,0,0-1.463,3.134l3.025,2.37a18.48,18.48,0,0,0-.722,3.685l-3.7,1.046c-.007.227-.011.455-.011.685a22.432,22.432,0,0,0,.172,2.772l3.779.693a18.417,18.417,0,0,0,1.068,3.6l-2.788,2.645a22.163,22.163,0,0,0,1.753,2.982l3.669-1.143a18.67,18.67,0,0,0,2.619,2.688l-1.24,3.638a22.213,22.213,0,0,0,2.935,1.831l2.717-2.717a18.422,18.422,0,0,0,3.571,1.164l.593,3.8a22.358,22.358,0,0,0,3.354.252h.1l1.143-3.668a18.535,18.535,0,0,0,3.7-.624l2.29,3.087a22.062,22.062,0,0,0,3.172-1.379l-.693-3.781a18.658,18.658,0,0,0,2.984-2.278l3.461,1.669a22.314,22.314,0,0,0,2.172-2.694l-2.369-3.024a18.489,18.489,0,0,0,1.589-3.4Zm-21.388,3.161a9.136,9.136,0,1,1,9.136-9.136,9.136,9.136,0,0,1-9.136,9.136" transform="translate(-549.51 -105.641)" fill="#9ec8ff"/>
            </g>
          </g>
        </g>
        <path id="Path_5989" data-name="Path 5989" d="M587.078,246.422a.238.238,0,0,1-.192-.1,16.586,16.586,0,0,1-1.389-2.215.238.238,0,1,1,.423-.221,16.133,16.133,0,0,0,1.349,2.151.239.239,0,0,1-.191.381" transform="translate(-460.816 -191.862)" fill="#fff"/>
        <path id="Path_5990" data-name="Path 5990" d="M614.863,272.884l-.031,0a16.5,16.5,0,0,1-7.885-3.265.239.239,0,0,1,.29-.379,16.028,16.028,0,0,0,7.657,3.17.239.239,0,0,1-.031.475" transform="translate(-477.647 -211.876)" fill="#fff"/>
        <path id="Path_5991" data-name="Path 5991" d="M393.76,306.857H341.18V211.81a2.1,2.1,0,0,1,2.1-2.1h62.282a2.1,2.1,0,0,1,2.1,2.1v81.143a13.9,13.9,0,0,1-13.9,13.9" transform="translate(-268.539 -165.06)" fill="#9ec8ff"/>
        <path id="Path_5992" data-name="Path 5992" d="M394.985,310.243H344.7V219.425a2,2,0,0,1,2-2h59.5a2,2,0,0,1,2,2v77.611a13.207,13.207,0,0,1-13.208,13.208" transform="translate(-271.307 -171.136)" fill="#fff"/>
        <path id="Path_5993" data-name="Path 5993" d="M269.528,548.885v-1.674a2.246,2.246,0,0,0-2.066-2.391H203.786a2.246,2.246,0,0,0-2.066,2.391v1.674c0,11.865,8.31,21.483,18.561,21.483h65.062c-10.251,0-15.954-8.536-15.814-21.483" transform="translate(-158.771 -428.822)" fill="#9ec8ff"/>
        <path id="Path_5994" data-name="Path 5994" d="M278.115,559.567v-1.354a1.934,1.934,0,0,0-1.934-1.934H216.553a1.934,1.934,0,0,0-1.934,1.934v1.354A17.38,17.38,0,0,0,232,576.947h63.5c-9.6,0-17.38-4.645-17.38-17.38" transform="translate(-168.924 -437.84)" fill="#fff"/>
        <path id="Path_5995" data-name="Path 5995" d="M434.33,288.968H388.976a2.606,2.606,0,0,1-2.6-2.6v-24.64a2.606,2.606,0,0,1,2.6-2.6H434.33a2.606,2.606,0,0,1,2.6,2.6v24.64a2.606,2.606,0,0,1-2.6,2.6m-45.354-28.995a1.753,1.753,0,0,0-1.751,1.751v24.64a1.753,1.753,0,0,0,1.751,1.751H434.33a1.753,1.753,0,0,0,1.751-1.751v-24.64a1.753,1.753,0,0,0-1.751-1.751Z" transform="translate(-304.11 -203.952)" fill="#9ec8ff"/>
        <path id="Path_5996" data-name="Path 5996" d="M351.752,445.958H301.9a1.288,1.288,0,1,1,0-2.576h49.854a1.288,1.288,0,0,1,0,2.576" transform="translate(-236.607 -348.981)" fill="#9ec8ff"/>
        <path id="Path_5997" data-name="Path 5997" d="M351.752,468.028H301.9a1.288,1.288,0,1,1,0-2.576h49.854a1.288,1.288,0,0,1,0,2.576" transform="translate(-236.607 -366.352)" fill="#9ec8ff"/>
        <path id="Path_5998" data-name="Path 5998" d="M351.752,489.329H301.9a1.288,1.288,0,1,1,0-2.576h49.854a1.288,1.288,0,0,1,0,2.576" transform="translate(-236.607 -383.118)" fill="#9ec8ff"/>
        <path id="Path_5999" data-name="Path 5999" d="M544.958,280.18h-1.666a.637.637,0,0,1-.637-.637v-1.372a.637.637,0,0,1,.637-.637h1.666a.637.637,0,0,1,.637.637v1.372a.637.637,0,0,1-.637.637" transform="translate(-427.118 -218.444)" fill="#9ec8ff"/>
        <path id="Path_6000" data-name="Path 6000" d="M570.065,280.18H568.4a.637.637,0,0,1-.637-.637v-1.372a.637.637,0,0,1,.637-.637h1.666a.637.637,0,0,1,.637.637v1.372a.637.637,0,0,1-.637.637" transform="translate(-446.879 -218.444)" fill="#9ec8ff"/>
        <path id="Path_6001" data-name="Path 6001" d="M595.175,280.18h-1.666a.637.637,0,0,1-.637-.637v-1.372a.637.637,0,0,1,.637-.637h1.666a.637.637,0,0,1,.637.637v1.372a.637.637,0,0,1-.637.637" transform="translate(-466.643 -218.444)" fill="#9ec8ff"/>
        <rect id="Rectangle_548" data-name="Rectangle 548" width="6.712" height="11.082" transform="translate(87.225 70.093)" fill="#9ec8ff"/>
        <rect id="Rectangle_549" data-name="Rectangle 549" width="6.712" height="10.159" transform="translate(105.729 71.016)" fill="#9ec8ff"/>
        <rect id="Rectangle_550" data-name="Rectangle 550" width="6.712" height="14.695" transform="translate(116.433 66.481)" fill="#9ec8ff"/>
        <rect id="Rectangle_551" data-name="Rectangle 551" width="6.712" height="6.712" transform="translate(96.295 74.463)" fill="#9ec8ff"/>
      </g>
    </g>
  </g>
</svg>
