<svg xmlns="http://www.w3.org/2000/svg" width="26.467" height="35.289" viewBox="0 0 26.467 35.289">
  <path id="download" d="M89.364,13.233H80.731a3.5,3.5,0,0,1-3.5-3.5V1.1A2.2,2.2,0,0,1,77.528,0H66.4A2.4,2.4,0,0,0,64,2.4v30.5a2.4,2.4,0,0,0,2.4,2.4H88.072a2.4,2.4,0,0,0,2.4-2.4V12.939a2.2,2.2,0,0,1-1.1.294Zm-16.219,6.94a1.1,1.1,0,0,1,1.559,0L76.131,21.6V14.888a1.1,1.1,0,1,1,2.206,0V21.6l1.426-1.425a1.1,1.1,0,0,1,1.559,1.559l-3.308,3.308a1.109,1.109,0,0,1-.886.318c-.552-.074-.378-.023-3.982-3.627A1.1,1.1,0,0,1,73.146,20.173Zm9.6,9.6H71.719a1.1,1.1,0,0,1,0-2.206H82.747a1.1,1.1,0,0,1,0,2.206ZM80.731,11.028h8.633L79.439,1.1V9.736A1.294,1.294,0,0,0,80.731,11.028Z" transform="translate(-64)" fill="#fff"/>
</svg>
