<svg id="Layer_x0020_1" xmlns="http://www.w3.org/2000/svg" width="30.46" height="30.46" viewBox="0 0 30.46 30.46">
  <path id="Path_100" data-name="Path 100" d="M307.9,317.807a9.9,9.9,0,1,1,9.9-9.9A9.915,9.915,0,0,1,307.9,317.807Z" transform="translate(-292.682 -292.682)" fill="#03386a" fill-rule="evenodd"/>
  <g id="Group_107" data-name="Group 107">
    <path id="Path_101" data-name="Path 101" d="M827.464,3.819A.461.461,0,0,1,827,3.355V.464A.472.472,0,0,1,827.464,0a.461.461,0,0,1,.464.464V3.355A.45.45,0,0,1,827.464,3.819Z" transform="translate(-812.243)" fill="#03386a" fill-rule="evenodd"/>
    <path id="Path_102" data-name="Path 102" d="M1160.063,114.025a.493.493,0,0,1-.232-.054.451.451,0,0,1-.178-.625l1.463-2.516a.451.451,0,0,1,.625-.178.462.462,0,0,1,.161.642l-1.445,2.5A.43.43,0,0,1,1160.063,114.025Z" transform="translate(-1138.9 -108.618)" fill="#03386a" fill-rule="evenodd"/>
    <path id="Path_103" data-name="Path 103" d="M1404.01,415.972a.444.444,0,0,1-.393-.232.483.483,0,0,1,.161-.642l2.516-1.445a.451.451,0,0,1,.625.178.461.461,0,0,1-.161.625l-2.516,1.445A.358.358,0,0,1,1404.01,415.972Z" transform="translate(-1378.51 -406.211)" fill="#03386a" fill-rule="evenodd"/>
    <path id="Path_104" data-name="Path 104" d="M1495.373,827.928h-2.909a.461.461,0,0,1-.464-.464.473.473,0,0,1,.464-.464h2.909a.472.472,0,0,1,.464.464A.461.461,0,0,1,1495.373,827.928Z" transform="translate(-1465.376 -812.243)" fill="#03386a" fill-rule="evenodd"/>
    <path id="Path_105" data-name="Path 105" d="M1406.526,1161.972a.359.359,0,0,1-.232-.071l-2.516-1.445a.461.461,0,0,1-.161-.625.451.451,0,0,1,.625-.178l2.516,1.463a.461.461,0,0,1,.161.625A.443.443,0,0,1,1406.526,1161.972Z" transform="translate(-1378.51 -1138.9)" fill="#03386a" fill-rule="evenodd"/>
    <path id="Path_106" data-name="Path 106" d="M1161.508,1406.99a.443.443,0,0,1-.393-.232l-1.463-2.516a.451.451,0,0,1,.178-.625.461.461,0,0,1,.625.161l1.445,2.516a.446.446,0,0,1-.161.625A.393.393,0,0,1,1161.508,1406.99Z" transform="translate(-1138.9 -1378.51)" fill="#03386a" fill-rule="evenodd"/>
    <path id="Path_107" data-name="Path 107" d="M827.464,1495.837a.472.472,0,0,1-.464-.464v-2.909a.473.473,0,0,1,.464-.464.461.461,0,0,1,.464.464v2.909A.461.461,0,0,1,827.464,1495.837Z" transform="translate(-812.243 -1465.376)" fill="#03386a" fill-rule="evenodd"/>
    <path id="Path_108" data-name="Path 108" d="M414.063,1406.553a.359.359,0,0,1-.232-.071.451.451,0,0,1-.178-.625l1.445-2.516a.466.466,0,0,1,.642-.161.461.461,0,0,1,.161.625l-1.445,2.516A.465.465,0,0,1,414.063,1406.553Z" transform="translate(-406.211 -1378.073)" fill="#03386a" fill-rule="evenodd"/>
    <path id="Path_109" data-name="Path 109" d="M111.063,1161.972a.494.494,0,0,1-.41-.232.451.451,0,0,1,.178-.625l2.516-1.463a.451.451,0,0,1,.625.178.461.461,0,0,1-.161.625l-2.516,1.445A.393.393,0,0,1,111.063,1161.972Z" transform="translate(-108.618 -1138.9)" fill="#03386a" fill-rule="evenodd"/>
    <path id="Path_110" data-name="Path 110" d="M3.355,827.928H.464A.461.461,0,0,1,0,827.464.472.472,0,0,1,.464,827H3.355a.461.461,0,0,1,.464.464A.45.45,0,0,1,3.355,827.928Z" transform="translate(0 -812.243)" fill="#03386a" fill-rule="evenodd"/>
    <path id="Path_111" data-name="Path 111" d="M113.579,415.972a.359.359,0,0,1-.232-.071l-2.516-1.445a.451.451,0,0,1-.178-.625.468.468,0,0,1,.642-.178l2.516,1.445a.483.483,0,0,1,.161.642A.489.489,0,0,1,113.579,415.972Z" transform="translate(-108.618 -406.211)" fill="#03386a" fill-rule="evenodd"/>
    <path id="Path_112" data-name="Path 112" d="M415.508,114.025a.478.478,0,0,1-.41-.214l-1.445-2.516a.468.468,0,0,1,.178-.642.451.451,0,0,1,.625.178l1.445,2.516a.461.461,0,0,1-.161.625A.549.549,0,0,1,415.508,114.025Z" transform="translate(-406.211 -108.618)" fill="#03386a" fill-rule="evenodd"/>
  </g>
  <path id="Path_113" data-name="Path 113" d="M532.823,550.224a.265.265,0,0,1-.161-.036l-3.194-1.231-3.176,1.231a.447.447,0,0,1-.446-.053.418.418,0,0,1-.178-.393l.2-3.408-2.177-2.641a.491.491,0,0,1-.071-.446.458.458,0,0,1,.321-.3l3.3-.857,1.856-2.891a.442.442,0,0,1,.375-.2.474.474,0,0,1,.393.2l1.856,2.891,3.3.857a.494.494,0,0,1,.321.3.45.45,0,0,1-.089.446l-2.159,2.641.2,3.408a.474.474,0,0,1-.2.393A.376.376,0,0,1,532.823,550.224Z" transform="translate(-514.247 -529.382)" fill="#fff" fill-rule="evenodd"/>
</svg>
