<svg xmlns="http://www.w3.org/2000/svg" width="13.329" height="13.329" viewBox="0 0 13.329 13.329">
  <g id="telephone" transform="translate(-199.547 -1046.684)">
    <g id="Group_4159" data-name="Group 4159">
      <path id="Path_6605" data-name="Path 6605" d="M9.931,53.52a.915.915,0,0,0-1.383,0c-.323.321-.647.641-.964.967a.191.191,0,0,1-.266.049c-.209-.114-.432-.206-.633-.331A10.029,10.029,0,0,1,4.267,52,5.728,5.728,0,0,1,3.4,50.616a.2.2,0,0,1,.049-.255c.323-.312.638-.633.956-.954a.918.918,0,0,0,0-1.415c-.253-.255-.505-.505-.758-.761s-.519-.524-.782-.782a.921.921,0,0,0-1.383,0c-.326.321-.638.649-.97.964a1.574,1.574,0,0,0-.494,1.062,4.5,4.5,0,0,0,.348,1.937A11.77,11.77,0,0,0,2.452,53.9a12.928,12.928,0,0,0,4.281,3.35,6.192,6.192,0,0,0,2.372.69,1.738,1.738,0,0,0,1.491-.568c.277-.31.59-.592.883-.888a.924.924,0,0,0,.005-1.407Q10.71,54.293,9.931,53.52Z" transform="translate(207.605 1000.995) rotate(8)" fill="#072c56"/>
    </g>
  </g>
</svg>
