<svg id="gardening" xmlns="http://www.w3.org/2000/svg" width="62.747" height="62.943" viewBox="0 0 62.747 62.943">
  <path id="Path_6392" data-name="Path 6392" d="M313.207,256l1.345.237a4.32,4.32,0,0,0,3.037-.59l5.187-3.24a8.636,8.636,0,0,0,3.93-5.826l1.827-10.363a1.283,1.283,0,0,0-1.041-1.487l-20.435-3.6a1.283,1.283,0,0,0-1.487,1.041l-1.828,10.364a8.637,8.637,0,0,0,1.7,6.818l3.766,4.818a4.318,4.318,0,0,0,2.652,1.593Zm0,0" transform="translate(-266.287 -202.694)" fill="#e1ebef"/>
  <path id="Path_6393" data-name="Path 6393" d="M311.063,287.688c4.454-2,6.888-9.384,6.888-9.384s-7.267-2.765-11.627-.567a5.716,5.716,0,0,0-1.989,1.628l-.585,3.319a8.635,8.635,0,0,0,.1,3.484c1.3,1.127,4.051,2.938,7.211,1.519Zm0,0" transform="translate(-266.294 -242.849)" fill="#c4d3d6"/>
  <path id="Path_6394" data-name="Path 6394" d="M360.1,256.9l-1.731,9.82a8.638,8.638,0,0,1-3.93,5.825l-5.187,3.24a4.319,4.319,0,0,1-3.037.59l-1.345-.237-1.158-.2.669.856a4.321,4.321,0,0,0,2.652,1.593l2.69.474a4.319,4.319,0,0,0,3.037-.59l5.187-3.24a8.636,8.636,0,0,0,3.93-5.826l1.827-10.363a1.283,1.283,0,0,0-1.041-1.487Zm0,0" transform="translate(-301.454 -225.316)" fill="#c4d3d6"/>
  <path id="Path_6395" data-name="Path 6395" d="M395.664,178.315l-2.871-.506-1.387,7.867,5.74,1.012,1.387-7.867Zm0,0" transform="translate(-343.288 -155.95)" fill="#e1ebef"/>
  <path id="Path_6396" data-name="Path 6396" d="M396.833,183.6l-.919,5.209a1.08,1.08,0,0,1-1.25.876l-1.808-.319-1.169-.206-.281,1.595,5.741,1.012,1.387-7.867Zm0,0" transform="translate(-343.289 -161.034)" fill="#c4d3d6"/>
  <path id="Path_6397" data-name="Path 6397" d="M408.313,51.194l-2.871-.506-2.755,15.628,2.871.506,2.87.506L411.184,51.7Zm0,0" transform="translate(-353.183 -44.456)" fill="#8dace2"/>
  <path id="Path_6398" data-name="Path 6398" d="M405.443,50.688l-.281,1.595,2.977.525a1.079,1.079,0,0,1,.875,1.25L407.2,64.37a1.08,1.08,0,0,1-1.251.876l-2.976-.525-.281,1.594,5.741,1.012L411.184,51.7Zm0,0" transform="translate(-353.183 -44.456)" fill="#4c6cb5"/>
  <path id="Path_6399" data-name="Path 6399" d="M408.671,5.067l.283-1.606a1.283,1.283,0,0,0-1.041-1.487L396.833.02a1.284,1.284,0,0,0-1.487,1.041l-.283,1.606-.283,1.606a1.283,1.283,0,0,0,1.041,1.487L406.9,7.714a1.284,1.284,0,0,0,1.487-1.041Zm0,0" transform="translate(-346.231 0)" fill="#8dace2"/>
  <path id="Path_6400" data-name="Path 6400" d="M407.156,14.969l-.469,2.658a1.08,1.08,0,0,1-1.25.876l-10.525-1.856-.133.756a1.284,1.284,0,0,0,1.041,1.487l11.08,1.954a1.283,1.283,0,0,0,1.487-1.041l.567-3.213a1.283,1.283,0,0,0-1.041-1.487Zm0,0" transform="translate(-346.229 -13.129)" fill="#4c6cb5"/>
  <path id="Path_6401" data-name="Path 6401" d="M116.824,252.432s-3.266,3.861-7.241,2.077c-3.2-1.435-5.244-5.935-5.955-7.737a.77.77,0,0,1,.484-1.018c1.847-.584,6.631-1.831,9.76-.254C117.762,247.462,116.824,252.432,116.824,252.432Zm0,0" transform="translate(-90.841 -214.647)" fill="#ffd432"/>
  <path id="Path_6402" data-name="Path 6402" d="M145.755,246.842a6.8,6.8,0,0,0-1.737-.581c2.493,2.258,1.766,6.12,1.766,6.12s-2.536,3-5.859,2.489a6.8,6.8,0,0,0,1.541.979c3.974,1.784,7.241-2.077,7.241-2.077S149.646,248.8,145.755,246.842Zm0,0" transform="translate(-122.724 -215.987)" fill="#f4a93c"/>
  <path id="Path_6403" data-name="Path 6403" d="M298.346,268.093s3.267,3.861,7.241,2.077c3.2-1.435,5.244-5.935,5.955-7.737a.77.77,0,0,0-.484-1.018c-1.847-.584-6.63-1.831-9.759-.254C297.408,263.123,298.346,268.093,298.346,268.093Zm0,0" transform="translate(-261.582 -228.382)" fill="#ffd432"/>
  <path id="Path_6404" data-name="Path 6404" d="M318.356,264.543c-.6,1.575-2.689,6.491-6.058,8a5.181,5.181,0,0,1-3.587.27,5.865,5.865,0,0,0,6.054.992c3.2-1.435,5.244-5.935,5.955-7.737a.77.77,0,0,0-.484-1.018C319.77,264.907,319.119,264.719,318.356,264.543Zm0,0" transform="translate(-270.759 -232.021)" fill="#f4a93c"/>
  <path id="Path_6405" data-name="Path 6405" d="M220.412,137.5s4.877-1.162,4.877-5.519c0-3.4-2.986-7.374-4.285-8.941a.769.769,0,0,0-1.184,0c-1.3,1.566-4.285,5.538-4.285,8.941C215.535,136.341,220.412,137.5,220.412,137.5Zm0,0" transform="translate(-189.038 -107.674)" fill="#6ec030"/>
  <path id="Path_6406" data-name="Path 6406" d="M220.412,137.5s4.877-1.162,4.877-5.519c0-3.4-2.986-7.374-4.285-8.941a.769.769,0,0,0-1.184,0c-1.3,1.566-4.285,5.538-4.285,8.941C215.535,136.341,220.412,137.5,220.412,137.5Zm0,0" transform="translate(-189.038 -107.674)" fill="#ffd432"/>
  <path id="Path_6407" data-name="Path 6407" d="M226.417,132.478c0-3.4-2.986-7.374-4.285-8.941a.767.767,0,0,0-.273-.208,12.17,12.17,0,0,1,2.12,5.941,5.252,5.252,0,0,1-2.645,4.529,4.168,4.168,0,0,1-4.478-.01l-.035-.023h0c.675,2.679,3.363,3.8,4.351,4.121l.006,0,.1.031.016,0,.075.023.018.005.056.016.018,0,.037.01.017,0,.017,0,.012,0S226.417,136.834,226.417,132.478Zm0,0" transform="translate(-190.165 -108.167)" fill="#f4a93c"/>
  <path id="Path_6408" data-name="Path 6408" d="M179.923,205.8a.963.963,0,0,0-1.284-.453l-5.9,2.818a11.611,11.611,0,0,0-4.021,2.664V194.018a.963.963,0,1,0-1.925,0V208.9a11.609,11.609,0,0,0-4.021-2.664l-5.9-2.818a.963.963,0,0,0-.83,1.737l5.87,2.805a.93.93,0,0,0,.115.053,10.746,10.746,0,0,1,4.762,3.876v7.286a.963.963,0,0,0,1.925,0v-5.361a10.752,10.752,0,0,1,4.762-3.876,1.01,1.01,0,0,0,.116-.052l5.87-2.805a.964.964,0,0,0,.453-1.284Zm0,0" transform="translate(-136.386 -169.322)" fill="#f4a93c"/>
  <path id="Path_6409" data-name="Path 6409" d="M52.171,409.445h9.293a1.28,1.28,0,0,0,1.226-1.665,5.4,5.4,0,0,0-6.978-3.4,9.495,9.495,0,0,0-9.535-4.313,6.032,6.032,0,0,0-11.1-2.086,5,5,0,0,0-7.386,0,6.032,6.032,0,0,0-11.1,2.086,9.495,9.495,0,0,0-9.535,4.313,5.4,5.4,0,0,0-6.978,3.4,1.281,1.281,0,0,0,1.226,1.665Zm0,0" transform="translate(-0.005 -346.502)" fill="#8dace2"/>
  <g id="Group_3989" data-name="Group 3989" transform="translate(0 48.568)">
    <path id="Path_6410" data-name="Path 6410" d="M57.556,404.054a5.392,5.392,0,0,0-1.85.326,9.494,9.494,0,0,0-9.535-4.313,6.032,6.032,0,0,0-11.092-2.1,9.5,9.5,0,0,1,6.894,4.364,5.4,5.4,0,0,1,6.542,2.41,1.792,1.792,0,0,1-1.579,2.654H.206q-.081.195-.146.4a1.279,1.279,0,0,0,1.228,1.657H61.458a1.28,1.28,0,0,0,1.226-1.665,5.392,5.392,0,0,0-5.128-3.725Zm0,0" transform="translate(0.001 -395.07)" fill="#4c6cb5"/>
    <path id="Path_6411" data-name="Path 6411" d="M166.306,436.368a.962.962,0,0,1-.962-.962,1.348,1.348,0,1,0-2.7,0,.963.963,0,0,1-1.925,0,3.273,3.273,0,1,1,6.546,0A.963.963,0,0,1,166.306,436.368Zm0,0" transform="translate(-140.964 -427.577)" fill="#4c6cb5"/>
    <path id="Path_6412" data-name="Path 6412" d="M287.411,456.2a.962.962,0,0,1-.962-.962,1.348,1.348,0,1,0-2.7,0,.963.963,0,0,1-1.925,0,3.273,3.273,0,1,1,6.546,0,.963.963,0,0,1-.963.962Zm0,0" transform="translate(-247.181 -444.974)" fill="#4c6cb5"/>
  </g>
  <path id="Path_6413" data-name="Path 6413" d="M412.3,479.363a.77.77,0,1,1-.77-.77A.77.77,0,0,1,412.3,479.363Zm0,0" transform="translate(-360.265 -419.757)" fill="#8dace2"/>
  <path id="Path_6414" data-name="Path 6414" d="M107.454,462.657a.77.77,0,1,1-.77-.77A.77.77,0,0,1,107.454,462.657Zm0,0" transform="translate(-92.893 -405.104)" fill="#4c6cb5"/>
</svg>
