<svg xmlns="http://www.w3.org/2000/svg" width="59.063" height="65.856" viewBox="0 0 59.063 65.856">
  <g id="Group_4028" data-name="Group 4028" transform="translate(0)">
    <path id="Path_6444" data-name="Path 6444" d="M249.6,84.793a1,1,0,0,1-1-1V79.332a3.585,3.585,0,0,1,2.972-3.537l24.2-4.235a1.6,1.6,0,0,0,1.324-1.576V62.326a1.6,1.6,0,0,0-1.6-1.6h-2.623a1,1,0,1,1,0-1.992H275.5a3.6,3.6,0,0,1,3.591,3.591v7.658a3.585,3.585,0,0,1-2.972,3.537l-24.2,4.235a1.6,1.6,0,0,0-1.324,1.576V83.8a1,1,0,0,1-1,1Z" transform="translate(-220.024 -51.18)" fill="#4c6cb5"/>
    <g id="Group_4027" data-name="Group 4027" transform="translate(0 0)">
      <g id="Group_4026" data-name="Group 4026" transform="translate(0 0)">
        <path id="Path_6445" data-name="Path 6445" d="M27.072,31.573h3.3v8.979h-3.3a.664.664,0,0,1-.664-.664V32.237A.664.664,0,0,1,27.072,31.573Z" transform="translate(-26.408 -27.512)" fill="#e6e2e6"/>
        <path id="Path_6446" data-name="Path 6446" d="M27.071,85.19h3.3V82.8H26.407v1.726A.664.664,0,0,0,27.071,85.19Z" transform="translate(-26.407 -72.15)" fill="#4c6cb5"/>
        <path id="Path_6447" data-name="Path 6447" d="M226.623,290.4h-8.737a.664.664,0,0,0-.664.664V313.87a5.032,5.032,0,0,0,10.065,0V291.063A.664.664,0,0,0,226.623,290.4Z" transform="translate(-192.678 -253.046)" fill="#8dace2"/>
        <path id="Path_6448" data-name="Path 6448" d="M222.253,459.327a5.032,5.032,0,0,1-5.032-5.032v2.39a5.032,5.032,0,0,0,10.065,0V454.3A5.032,5.032,0,0,1,222.253,459.327Z" transform="translate(-192.678 -395.861)" fill="#4c6cb5"/>
        <path id="Path_6449" data-name="Path 6449" d="M234.285,258.314h-7.641v-4.072a.664.664,0,0,1,.664-.664h6.313a.664.664,0,0,1,.664.664v4.072Z" transform="translate(-200.889 -220.962)" fill="#4c6cb5"/>
        <path id="Path_6450" data-name="Path 6450" d="M226.644,271.818h7.641v2.39h-7.641Z" transform="translate(-200.889 -236.855)" fill="#4c6cb5"/>
        <path id="Path_6451" data-name="Path 6451" d="M103.534,17.1H59.843a2.6,2.6,0,0,1-2.6-2.6V2.6a2.6,2.6,0,0,1,2.6-2.6h43.691a2.6,2.6,0,0,1,2.6,2.6v11.91A2.6,2.6,0,0,1,103.534,17.1Z" transform="translate(-53.281 0)" fill="#8dace2"/>
        <path id="Path_6452" data-name="Path 6452" d="M103.535,96.79H59.844a2.6,2.6,0,0,1-2.6-2.6v2.39a2.6,2.6,0,0,0,2.6,2.6h43.691a2.6,2.6,0,0,0,2.6-2.6v-2.39A2.6,2.6,0,0,1,103.535,96.79Z" transform="translate(-53.282 -82.079)" fill="#4c6cb5"/>
        <path id="Path_6453" data-name="Path 6453" d="M135.9,0V23.054a2.939,2.939,0,1,0,5.878,0V7.869a2.939,2.939,0,0,1,5.878,0V10.1a2.939,2.939,0,0,0,5.878,0V0Z" transform="translate(-121.82 0)" fill="#f4a93c"/>
        <g id="Group_4025" data-name="Group 4025" transform="translate(14.084 2.54)">
          <path id="Path_6454" data-name="Path 6454" d="M190.422,27.857a2.939,2.939,0,0,1-2.939-2.939V22.686a2.939,2.939,0,0,0-5.878,0v2.39a2.939,2.939,0,0,1,5.878,0v2.232a2.939,2.939,0,0,0,5.878,0v-2.39a2.939,2.939,0,0,1-2.939,2.939Z" transform="translate(-175.727 -19.747)" fill="#d38717"/>
          <path id="Path_6455" data-name="Path 6455" d="M138.843,163.6a2.939,2.939,0,0,1-2.939-2.939v2.39a2.939,2.939,0,1,0,5.878,0v-2.39A2.939,2.939,0,0,1,138.843,163.6Z" transform="translate(-135.904 -142.533)" fill="#d38717"/>
        </g>
      </g>
    </g>
  </g>
</svg>
