<svg id="guard" xmlns="http://www.w3.org/2000/svg" width="54.251" height="60.03" viewBox="0 0 54.251 60.03">
  <g id="Group_3990" data-name="Group 3990" transform="translate(43.111 51.503)">
    <path id="Path_6415" data-name="Path 6415" d="M402.9,447.806H392.346V439.28H402.9l.586,1.846v6.094A.586.586,0,0,1,402.9,447.806Z" transform="translate(-392.346 -439.28)" fill="#8dace2"/>
  </g>
  <g id="Group_3991" data-name="Group 3991" transform="translate(50.302 51.503)">
    <path id="Path_6416" data-name="Path 6416" d="M454.32,439.279v7.887a.639.639,0,0,1-.639.639h3.362a.586.586,0,0,0,.586-.586v-6.094l-.586-1.846H454.32Z" transform="translate(-453.681 -439.279)" fill="#7996c9"/>
  </g>
  <g id="Group_3992" data-name="Group 3992" transform="translate(0 51.503)">
    <path id="Path_6417" data-name="Path 6417" d="M35.784,447.806H25.231a.586.586,0,0,1-.586-.586v-6.094l.586-1.846H35.784Z" transform="translate(-24.645 -439.28)" fill="#8dace2"/>
  </g>
  <g id="Group_3993" data-name="Group 3993" transform="translate(0 32.259)">
    <path id="Path_6418" data-name="Path 6418" d="M78.9,296.234H24.645v-5.389a15.7,15.7,0,0,1,15.7-15.7H63.194a15.7,15.7,0,0,1,15.7,15.7v5.389Z" transform="translate(-24.645 -275.144)" fill="#4c6cb5"/>
  </g>
  <g id="Group_3994" data-name="Group 3994" transform="translate(35.25 32.259)">
    <path id="Path_6419" data-name="Path 6419" d="M328.6,275.144h-3.3a15.7,15.7,0,0,1,15.7,15.7v5.389h3.3v-5.389A15.7,15.7,0,0,0,328.6,275.144Z" transform="translate(-325.301 -275.144)" fill="#3b5ead"/>
  </g>
  <g id="Group_3995" data-name="Group 3995" transform="translate(19.517 22.368)">
    <path id="Path_6420" data-name="Path 6420" d="M200.324,207.716h-3.217a6,6,0,0,1-6-6V190.784h15.217v10.933A6,6,0,0,1,200.324,207.716Z" transform="translate(-191.107 -190.784)" fill="#8dace2"/>
  </g>
  <g id="Group_3996" data-name="Group 3996" transform="translate(25.515 22.368)">
    <path id="Path_6421" data-name="Path 6421" d="M248.266,190.784v10.933a6,6,0,0,1-6,6h3.219a6,6,0,0,0,6-6V190.784Z" transform="translate(-242.268 -190.784)" fill="#7996c9"/>
  </g>
  <g id="Group_3997" data-name="Group 3997" transform="translate(16.238 5.159)">
    <path id="Path_6422" data-name="Path 6422" d="M181.627,66.624l-3.709,3.438a5.723,5.723,0,0,1-7.782,0l-3.709-3.438a10.268,10.268,0,0,1-3.288-7.53V44.005h21.775v10.2l-.768,3.24a19.678,19.678,0,0,1,.639,3.265A10.269,10.269,0,0,1,181.627,66.624Z" transform="translate(-163.14 -44.005)" fill="#8dace2"/>
  </g>
  <g id="Group_3998" data-name="Group 3998" transform="translate(37.442 14.4)">
    <path id="Path_6423" data-name="Path 6423" d="M345.056,130.515h-.038a1.022,1.022,0,0,1-1.022-1.022V125.4a2.578,2.578,0,0,1,2.578-2.578,1.583,1.583,0,0,1,1.583,1.583v3.01A3.1,3.1,0,0,1,345.056,130.515Z" transform="translate(-343.995 -122.822)" fill="#ffcbbe"/>
  </g>
  <g id="Group_3999" data-name="Group 3999" transform="translate(37.442 14.4)">
    <path id="Path_6424" data-name="Path 6424" d="M345.056,130.515h-.038a1.022,1.022,0,0,1-1.022-1.022V125.4a2.578,2.578,0,0,1,2.578-2.578,1.583,1.583,0,0,1,1.583,1.583v3.01A3.1,3.1,0,0,1,345.056,130.515Z" transform="translate(-343.995 -122.822)" fill="#8dace2"/>
  </g>
  <g id="Group_4000" data-name="Group 4000" transform="translate(12.915 14.4)">
    <path id="Path_6425" data-name="Path 6425" d="M137.895,130.515h.038a1.022,1.022,0,0,0,1.022-1.022V125.4a2.578,2.578,0,0,0-2.578-2.578,1.583,1.583,0,0,0-1.583,1.583v3.01A3.1,3.1,0,0,0,137.895,130.515Z" transform="translate(-134.795 -122.822)" fill="#8dace2"/>
  </g>
  <g id="Group_4001" data-name="Group 4001" transform="translate(32.065 5.159)">
    <path id="Path_6426" data-name="Path 6426" d="M300.811,44.005v17.55a11.942,11.942,0,0,1-2.678,7.535l2.66-2.466a10.268,10.268,0,0,0,3.288-7.53V44.005Z" transform="translate(-298.133 -44.005)" fill="#7996c9"/>
  </g>
  <g id="Group_4002" data-name="Group 4002" transform="translate(15.192)">
    <path id="Path_6427" data-name="Path 6427" d="M178.088,8.912v-3.5A5.416,5.416,0,0,0,172.672,0H159.638a5.416,5.416,0,0,0-5.416,5.416v3.5Z" transform="translate(-154.222)" fill="#3b5ead"/>
  </g>
  <g id="Group_4003" data-name="Group 4003" transform="translate(30.104)">
    <path id="Path_6428" data-name="Path 6428" d="M284.948,0H281.41a5.416,5.416,0,0,1,5.416,5.416v3.5h3.538v-3.5A5.416,5.416,0,0,0,284.948,0Z" transform="translate(-281.41)" fill="#29488f"/>
  </g>
  <g id="Group_4004" data-name="Group 4004" transform="translate(8.678 30.935)">
    <path id="Path_6429" data-name="Path 6429" d="M127.985,265.128v3.357a7.924,7.924,0,0,1-2.32,5.6l-7.652,7.654-.024.023a1.5,1.5,0,0,1-.9.52,1.52,1.52,0,0,1-.86-.52l-.024-.023-7.652-7.654a7.924,7.924,0,0,1-2.32-5.6v-3.357a1.279,1.279,0,0,0-1.279-1.279H99.941a1.279,1.279,0,0,0-1.279,1.279v27.816H116.23l.879-.66.879.66h17.568V265.128a1.279,1.279,0,0,0-1.279-1.279h-5.014A1.279,1.279,0,0,0,127.985,265.128Z" transform="translate(-98.662 -263.849)" fill="#f4a93c"/>
  </g>
  <g id="Group_4006" data-name="Group 4006" transform="translate(40.729 30.935)">
    <g id="Group_4005" data-name="Group 4005">
      <path id="Path_6430" data-name="Path 6430" d="M375.594,263.849h-3.565a1.279,1.279,0,0,1,1.279,1.279v27.816h3.565V265.128A1.279,1.279,0,0,0,375.594,263.849Z" transform="translate(-372.029 -263.849)" fill="#f1d333"/>
    </g>
  </g>
  <g id="Group_4013" data-name="Group 4013" transform="translate(4.202 38.306)">
    <g id="Group_4007" data-name="Group 4007" transform="translate(7.85)">
      <path id="Path_6431" data-name="Path 6431" d="M128.315,336.34a.879.879,0,0,1-.879-.879V327.6a.879.879,0,1,1,1.759,0v7.862A.879.879,0,0,1,128.315,336.34Z" transform="translate(-127.436 -326.719)" fill="#365e7d"/>
    </g>
    <g id="Group_4008" data-name="Group 4008" transform="translate(0 7.052)">
      <path id="Path_6432" data-name="Path 6432" d="M69.449,401.537H62.992a2.506,2.506,0,0,1-2.506-2.506v-9.659a2.506,2.506,0,0,1,2.506-2.506h6.457a2.579,2.579,0,0,1,2.579,2.579v9.513A2.579,2.579,0,0,1,69.449,401.537Z" transform="translate(-60.486 -386.866)" fill="#365e7d"/>
    </g>
    <g id="Group_4009" data-name="Group 4009" transform="translate(6.283 7.052)">
      <path id="Path_6433" data-name="Path 6433" d="M116.754,386.866h-2.681a2.733,2.733,0,0,1,2.733,2.733V398.8a2.733,2.733,0,0,1-2.733,2.733h2.681a2.579,2.579,0,0,0,2.579-2.579v-9.513A2.579,2.579,0,0,0,116.754,386.866Z" transform="translate(-114.073 -386.866)" fill="#2b4d66"/>
    </g>
    <g id="Group_4010" data-name="Group 4010" transform="translate(2.733 10.049)">
      <ellipse id="Ellipse_131" data-name="Ellipse 131" cx="1.102" cy="1.102" rx="1.102" ry="1.102" fill="#f4a93c"/>
    </g>
    <g id="Group_4011" data-name="Group 4011" transform="translate(2.956 14.359)">
      <path id="Path_6434" data-name="Path 6434" d="M90.27,450.952H86.577a.879.879,0,1,1,0-1.759H90.27a.879.879,0,1,1,0,1.759Z" transform="translate(-85.698 -449.193)" fill="#2b4d66"/>
    </g>
    <g id="Group_4012" data-name="Group 4012" transform="translate(2.956 18.099)">
      <path id="Path_6435" data-name="Path 6435" d="M90.27,482.849H86.577a.879.879,0,1,1,0-1.759H90.27a.879.879,0,1,1,0,1.759Z" transform="translate(-85.698 -481.09)" fill="#2b4d66"/>
    </g>
  </g>
  <g id="Group_4014" data-name="Group 4014" transform="translate(32.33 50.883)">
    <path id="Path_6436" data-name="Path 6436" d="M309.814,438.924h-8.72a.7.7,0,0,1-.7-.7V434.7a.7.7,0,0,1,.7-.7h8.72a.7.7,0,0,1,.7.7v3.525A.7.7,0,0,1,309.814,438.924Z" transform="translate(-300.39 -433.992)" fill="#f6f1f1"/>
  </g>
  <g id="Group_4015" data-name="Group 4015" transform="translate(32.33 50.883)">
    <path id="Path_6437" data-name="Path 6437" d="M309.814,433.992H308.2v1.864a.755.755,0,0,1-.755.755H300.39v1.61a.7.7,0,0,0,.7.7h8.72a.7.7,0,0,0,.7-.7V434.7A.7.7,0,0,0,309.814,433.992Z" transform="translate(-300.39 -433.992)" fill="#e2dfe2"/>
  </g>
  <path id="Path_6438" data-name="Path 6438" d="M248.5,416.642v11.18h1.759v-11.18A1.277,1.277,0,0,1,248.5,416.642Z" transform="translate(-222.254 -367.793)" fill="#2b4d66"/>
  <g id="Group_4016" data-name="Group 4016" transform="translate(15.192 8.137)">
    <path id="Path_6439" data-name="Path 6439" d="M154.221,69.4v7.331a1.331,1.331,0,0,0,1.331,1.331h.114A10.732,10.732,0,0,0,161.48,76.3a8.633,8.633,0,0,1,9.347,0,10.731,10.731,0,0,0,5.815,1.763h.114a1.331,1.331,0,0,0,1.331-1.331V69.4Z" transform="translate(-154.221 -69.398)" fill="#4c6cb5"/>
  </g>
  <g id="Group_4018" data-name="Group 4018" transform="translate(35.061 8.137)">
    <g id="Group_4017" data-name="Group 4017">
      <path id="Path_6440" data-name="Path 6440" d="M324.146,69.4v7.331a1.326,1.326,0,0,1-.459,1,10.252,10.252,0,0,0,2.553.327h.114a1.331,1.331,0,0,0,1.331-1.331V69.4Z" transform="translate(-323.687 -69.398)" fill="#3b5ead"/>
    </g>
  </g>
</svg>
