<svg id="Group_3809" data-name="Group 3809" xmlns="http://www.w3.org/2000/svg" xmlns:xlink="http://www.w3.org/1999/xlink" width="17.157" height="16.854" viewBox="0 0 17.157 16.854">
  <defs>
    <clipPath id="clip-path">
      <rect id="Rectangle_267" data-name="Rectangle 267" width="17.157" height="16.854" fill="#03386a"/>
    </clipPath>
  </defs>
  <g id="Group_212" data-name="Group 212" clip-path="url(#clip-path)">
    <path id="Path_126" data-name="Path 126" d="M100.09,4.385h.245a.675.675,0,0,0,.675-.675V1.148a.675.675,0,0,0-.675-.675h-.245a.675.675,0,0,0-.675.675V3.709a.675.675,0,0,0,.675.675" transform="translate(-95.898 -0.456)" fill="#03386a"/>
    <path id="Path_127" data-name="Path 127" d="M344.956,3.912h.245a.675.675,0,0,0,.675-.675V.675A.675.675,0,0,0,345.2,0h-.245a.675.675,0,0,0-.675.675V3.236a.676.676,0,0,0,.675.675" transform="translate(-332.101)" fill="#03386a"/>
    <path id="Path_128" data-name="Path 128" d="M16.059,39.269H14.326v2.024A1.087,1.087,0,0,1,13.1,42.341h-.245a1.226,1.226,0,0,1-1.224-1.224V39.269H5.663v1.864a1.226,1.226,0,0,1-1.224,1.224H4.193a1.226,1.226,0,0,1-1.224-1.224V39.269H1.1a1.1,1.1,0,0,0-1.1,1.1V53.635a1.1,1.1,0,0,0,1.1,1.1H16.059a1.1,1.1,0,0,0,1.1-1.1V40.367a1.1,1.1,0,0,0-1.1-1.1m0,14.366H1.1V43.615H16.059v10.02h0" transform="translate(0 -37.88)" fill="#03386a"/>
    <path id="Path_129" data-name="Path 129" d="M254.64,202.856h1.972a.142.142,0,0,0,.142-.142v-1.707a.142.142,0,0,0-.142-.142H254.64a.142.142,0,0,0-.142.142v1.707a.142.142,0,0,0,.142.142" transform="translate(-245.494 -193.76)" fill="#03386a"/>
    <path id="Path_130" data-name="Path 130" d="M345.585,202.856h1.972a.142.142,0,0,0,.142-.142v-1.707a.142.142,0,0,0-.142-.142h-1.972a.142.142,0,0,0-.142.142v1.707a.142.142,0,0,0,.142.142" transform="translate(-333.221 -193.76)" fill="#03386a"/>
    <path id="Path_131" data-name="Path 131" d="M72.753,281.855h1.972a.142.142,0,0,0,.142-.142v-1.707a.142.142,0,0,0-.142-.142H72.753a.142.142,0,0,0-.142.142v1.707a.142.142,0,0,0,.142.142" transform="translate(-70.042 -269.964)" fill="#03386a"/>
    <path id="Path_132" data-name="Path 132" d="M163.7,281.855h1.972a.142.142,0,0,0,.142-.142v-1.707a.142.142,0,0,0-.142-.142H163.7a.142.142,0,0,0-.142.142v1.707a.142.142,0,0,0,.142.142" transform="translate(-157.769 -269.964)" fill="#03386a"/>
    <path id="Path_133" data-name="Path 133" d="M254.641,281.855h1.972a.142.142,0,0,0,.142-.142v-1.707a.142.142,0,0,0-.142-.142h-1.972a.142.142,0,0,0-.142.142v1.707a.142.142,0,0,0,.142.142" transform="translate(-245.495 -269.964)" fill="#03386a"/>
    <path id="Path_134" data-name="Path 134" d="M345.585,281.855h1.972a.142.142,0,0,0,.142-.142v-1.707a.142.142,0,0,0-.142-.142h-1.972a.142.142,0,0,0-.142.142v1.707a.142.142,0,0,0,.142.142" transform="translate(-333.221 -269.964)" fill="#03386a"/>
    <path id="Path_135" data-name="Path 135" d="M74.725,358.865H72.754a.142.142,0,0,0-.142.142v1.707a.142.142,0,0,0,.142.142h1.972a.142.142,0,0,0,.142-.142v-1.707a.142.142,0,0,0-.142-.142" transform="translate(-70.043 -346.169)" fill="#03386a"/>
    <path id="Path_136" data-name="Path 136" d="M165.669,358.865H163.7a.142.142,0,0,0-.142.142v1.707a.142.142,0,0,0,.142.142h1.972a.142.142,0,0,0,.142-.142v-1.707a.142.142,0,0,0-.142-.142" transform="translate(-157.77 -346.169)" fill="#03386a"/>
    <path id="Path_137" data-name="Path 137" d="M256.613,358.865h-1.972a.142.142,0,0,0-.142.142v1.707a.142.142,0,0,0,.142.142h1.972a.142.142,0,0,0,.142-.142v-1.707a.142.142,0,0,0-.142-.142" transform="translate(-245.496 -346.169)" fill="#03386a"/>
    <path id="Path_138" data-name="Path 138" d="M347.556,358.865h-1.972a.142.142,0,0,0-.142.142v1.707a.142.142,0,0,0,.142.142h1.972a.142.142,0,0,0,.142-.142v-1.707a.142.142,0,0,0-.142-.142" transform="translate(-333.221 -346.169)" fill="#03386a"/>
  </g>
</svg>
