<svg xmlns="http://www.w3.org/2000/svg" width="24.992" height="16.156" viewBox="0 0 24.992 16.156">
  <g id="view" transform="translate(0 -91.866)">
    <circle id="Ellipse_120" data-name="Ellipse 120" cx="3.848" cy="3.848" r="3.848" transform="translate(8.649 96.098)" fill="#fff"/>
    <path id="Path_6385" data-name="Path 6385" d="M24.609,98.88c-2.958-3.574-7.434-7.014-12.113-7.014S3.34,95.309.384,98.88a1.673,1.673,0,0,0,0,2.132,25.047,25.047,0,0,0,4.381,4.146c5.24,3.815,10.211,3.823,15.463,0a25.047,25.047,0,0,0,4.381-4.146A1.673,1.673,0,0,0,24.609,98.88ZM12.5,94.559A5.387,5.387,0,1,1,7.11,99.946,5.393,5.393,0,0,1,12.5,94.559Z" fill="#fff"/>
  </g>
</svg>
